<svg xmlns="http://www.w3.org/2000/svg" xmlns:xlink="http://www.w3.org/1999/xlink" viewBox="0 0 260 351.2"><defs><style>.cls-1{fill:none;}.cls-1,.cls-3{stroke:#2b383f;stroke-miterlimit:10;stroke-width:19px;}.cls-2{clip-path:url(#clip-path);}.cls-3{fill:#31c3a2;}.cls-4{fill:#4f5e65;}.cls-5{fill:#2b383f;}</style><clipPath id="clip-path"><path class="cls-1" d="M207,165.08a96.75,96.75,0,0,0-48-34.37V28.7h8.27a9.5,9.5,0,0,0,0-19H92.73a9.5,9.5,0,0,0,0,19H101v102C62.26,143.08,34,179.5,34,222.2a95.27,95.27,0,0,0,15.17,51.63,97,97,0,0,0,39.27,34.85,95.61,95.61,0,0,0,9.62,4h63.87A95.8,95.8,0,0,0,207,165.08Z"/></clipPath></defs><title>beaker-round</title><g id="Layer_2" data-name="Layer 2"><g id="Layer_1-2" data-name="Layer 1"><g class="cls-2"><rect class="cls-3" x="9.5" y="92.2" width="241" height="249.5"/><rect class="cls-4" x="159.55" y="219.2" width="76" height="19" rx="9.5" ry="9.5"/><rect class="cls-4" x="159.55" y="260.2" width="63" height="19" rx="9.5" ry="9.5"/></g><path class="cls-1" d="M207,165.08a96.75,96.75,0,0,0-48-34.37V28.7h8.27a9.5,9.5,0,0,0,0-19H92.73a9.5,9.5,0,0,0,0,19H101v102C62.26,143.08,34,179.5,34,222.2a95.27,95.27,0,0,0,15.17,51.63,97,97,0,0,0,39.27,34.85,95.61,95.61,0,0,0,9.62,4h63.87A95.8,95.8,0,0,0,207,165.08Z"/><rect class="cls-5" x="73.27" width="113.47" height="38.29" rx="18.6" ry="18.6" transform="translate(260 38.29) rotate(-180)"/></g></g></svg>