<svg xmlns="http://www.w3.org/2000/svg" xmlns:xlink="http://www.w3.org/1999/xlink" viewBox="0 0 266 279.45"><defs><style>.cls-1{fill:none;stroke:#2b383f;stroke-linecap:round;stroke-linejoin:round;stroke-width:18.5px;}.cls-2{fill:#2b383f;}.cls-3{clip-path:url(#clip-path);}.cls-4{fill:#31c3a2;}.cls-5{fill:#4f5e65;}</style><clipPath id="clip-path"><path class="cls-1" d="M238,270.2H27.75c-14.16,0-22.68-16.7-15-29.33L89.64,115.2h.1v-97H176v97.72l76.92,124.9C260.7,253.44,252.18,270.2,238,270.2Z"/></clipPath></defs><title>beaker_1</title><g id="Layer_2" data-name="Layer 2"><g id="Layer_1-2" data-name="Layer 1"><rect class="cls-2" x="57.87" width="150" height="37.2" rx="18.6" ry="18.6" transform="translate(265.75 37.2) rotate(-180)"/><g class="cls-3"><rect class="cls-4" y="80.2" width="266" height="199"/><path class="cls-5" d="M251.94,240.36H206.45c-2.77,0-5-2.77-5-6.18s2.24-6.18,5-6.19h45.5"/><path class="cls-5" d="M233.94,207.36H185.75c-2.94,0-5.32-2.77-5.32-6.18s2.37-6.18,5.31-6.19h48.2"/><path class="cls-5" d="M222.67,174.36H166.61a6.19,6.19,0,0,1,0-12.37h56.07"/></g><path class="cls-1" d="M238,270.2H27.75c-14.16,0-22.68-16.7-15-29.33L89.64,115.2h.1v-97H176v97.72l76.92,124.9C260.7,253.44,252.18,270.2,238,270.2Z"/></g></g></svg>