<svg width="118" height="96" viewBox="0 0 118 96" fill="none" xmlns="http://www.w3.org/2000/svg">
<path fill-rule="evenodd" clip-rule="evenodd" d="M48 -22C9.34007 -22 -22 9.34007 -22 48C-22 86.6599 9.34007 118 48 118C86.6599 118 118 86.6599 118 48C118 9.34007 86.6599 -22 48 -22ZM58 48C58 53.5229 53.5229 58 48 58C42.4771 58 38 53.5229 38 48V18C38 12.4771 42.4771 8 48 8C53.5229 8 58 12.4771 58 18L58 48ZM48 88C53.5229 88 58 83.5228 58 78C58 72.4772 53.5229 68 48 68C42.4771 68 38 72.4772 38 78C38 83.5228 42.4771 88 48 88Z" fill="#F85640"/>
</svg>
