<svg width="118" height="96" viewBox="0 0 118 96" fill="none" xmlns="http://www.w3.org/2000/svg">
<path fill-rule="evenodd" clip-rule="evenodd" d="M48 118C86.6599 118 118 86.6599 118 48C118 9.34007 86.6599 -22 48 -22C9.34007 -22 -22 9.34007 -22 48C-22 86.6599 9.34007 118 48 118ZM38 48C38 42.4771 42.4771 38 48 38C53.5229 38 58 42.4771 58 48V78C58 83.5229 53.5229 88 48 88C42.4771 88 38 83.5229 38 78V48ZM48 8C42.4771 8 38 12.4772 38 18C38 23.5228 42.4771 28 48 28C53.5229 28 58 23.5228 58 18C58 12.4772 53.5229 8 48 8Z" fill="#09161D" style="opacity:0.02" />
</svg>
