<svg width="280" height="231" viewBox="0 0 280 231" fill="none" xmlns="http://www.w3.org/2000/svg">
<path fill-rule="evenodd" clip-rule="evenodd" d="M280 80V125C280 141.569 266.569 155 250 155H235V172C235 185.807 223.807 197 210 197H128.914C128.649 197 128.395 197.105 128.207 197.293L97.2427 228.257C93.4629 232.037 87 229.36 87 224.015V198C87 197.448 86.5522 197 86 197H70C56.1929 197 45 185.807 45 172V155H30C13.4314 155 0 141.569 0 125V80C0 63.4315 13.4314 50 30 50V44C30 19.6995 49.6995 0 74 0H206C230.301 0 250 19.6995 250 44V50C266.569 50 280 63.4315 280 80ZM60 44C60 36.268 66.2681 30 74 30H206C213.732 30 220 36.268 220 44V50H60V44ZM140 126L132.747 149.371C131.708 152.719 128.611 155 125.106 155H60V172C60 177.523 64.4771 182 70 182H97C99.7615 182 102 184.239 102 187V202.287L120.822 183.464C121.76 182.527 123.032 182 124.358 182H210C215.523 182 220 177.523 220 172V155H154.894C151.389 155 148.292 152.719 147.253 149.371L140 126ZM20 80C20 74.4772 24.4771 70 30 70V60C18.9543 60 10 68.9543 10 80V125C10 127.761 12.2385 130 15 130C17.7615 130 20 127.761 20 125V80ZM260 80C260 74.4772 255.523 70 250 70V60C261.046 60 270 68.9543 270 80V125C270 127.761 267.761 130 265 130C262.239 130 260 127.761 260 125V80ZM90 75C78.9543 75 70 83.9541 70 95V110C70 121.046 78.9543 130 90 130C101.046 130 110 121.046 110 110V95C110 83.9541 101.046 75 90 75ZM88 83C82.4771 83 78 87.4771 78 93C78 98.5229 82.4771 103 88 103C93.5229 103 98 98.5229 98 93C98 87.4771 93.5229 83 88 83ZM190 75C178.954 75 170 83.9541 170 95V110C170 121.046 178.954 130 190 130C201.046 130 210 121.046 210 110V95C210 83.9541 201.046 75 190 75ZM188 83C182.477 83 178 87.4771 178 93C178 98.5229 182.477 103 188 103C193.523 103 198 98.5229 198 93C198 87.4771 193.523 83 188 83Z" fill="white"/>
</svg>
