<svg width="404.20003" height="352.79998" xmlns="http://www.w3.org/2000/svg">
 <style type="text/css">.st0{fill:#0E434F;}
	.st1{fill:#24B8EB;}
	.st2{opacity:0.35;fill:#231F20;}
	.st3{fill:#FFFFFF;}</style>

 <g>
  <title>background</title>
  <rect fill="none" id="canvas_background" height="354.79998" width="406.20003" y="-1" x="-1"/>
 </g>
 <g>
  <title>Layer 1</title>
  <g stroke="null" id="Symbol">
   <path stroke="null" id="svg_1" d="m352.957291,350.67389c-15.844737,-2.708502 -25.595344,-15.844737 -30.741498,-22.480567c-35.887652,-47.263361 -70.556479,-95.474697 -105.90243,-143.144334c-5.958705,-7.990081 -5.958705,-10.969433 0,-18.959514c36.564778,-49.023887 73.129555,-98.047774 109.558908,-147.207087c4.469028,-5.958705 9.750607,-10.698583 15.980162,-13.677935c4.604453,-2.302227 9.073482,-3.114777 11.511134,-3.521053c7.312956,-1.083401 13.00081,0 14.761336,0.406275c11.375709,2.437652 18.417814,9.344332 20.584616,11.646559c13.948786,14.896761 14.490486,37.241903 1.218826,54.982592c-25.595344,34.397976 -51.326114,68.795952 -77.056883,103.193928c-2.166802,2.843927 -2.302227,4.604453 0,7.583806c26.27247,35.075102 52.409515,70.285628 78.54656,105.36073c2.302227,3.114777 4.198178,6.500405 5.687854,10.021458c1.895951,4.739879 2.573077,8.667207 2.843927,10.698583c0.947976,7.042105 -0.27085,12.594535 -0.677126,14.625911c-1.489676,6.500405 -4.198178,10.969433 -5.146154,12.594535c-1.218826,1.895951 -5.687854,8.396356 -14.084211,13.27166c-1.625101,0.406275 -13.54251,6.90668 -27.085021,4.604453z" class="st3"/>
   <path stroke="null" id="svg_2" d="m52.042713,350.67389c15.844737,-2.708502 25.595344,-15.844737 30.741498,-22.480567c35.887652,-47.263361 70.556479,-95.474697 105.90243,-143.144334c5.958705,-7.990081 5.958705,-10.969433 0,-18.959514c-36.564778,-49.023887 -73.129555,-98.047774 -109.558908,-147.207087c-4.469028,-5.958705 -9.750607,-10.698583 -15.980162,-13.677935c-4.604453,-2.302227 -9.073482,-3.114777 -11.511134,-3.521053c-7.312956,-1.083401 -13.00081,0 -14.761336,0.406275c-11.375709,2.437652 -18.417814,9.344332 -20.584616,11.646559c-13.948786,14.896761 -14.490486,37.241903 -1.218826,54.982592c25.595344,34.397976 51.326114,68.795952 77.056883,103.193928c2.166802,2.843927 2.302227,4.604453 0,7.583806c-26.27247,35.075102 -52.409515,70.285628 -78.54656,105.36073c-2.302227,3.114777 -4.198178,6.500405 -5.687854,10.021458c-1.895951,4.739879 -2.573077,8.667207 -2.843927,10.698583c-0.947976,7.042105 0.27085,12.594535 0.677126,14.625911c1.489676,6.500405 4.198178,10.969433 5.146154,12.594535c1.218826,1.895951 5.687854,8.396356 14.084211,13.27166c1.625101,0.406275 13.54251,6.90668 27.085021,4.604453z" class="st3"/>
  </g>
 </g>
</svg>