<svg id="Layer_1" data-name="Layer 1" xmlns="http://www.w3.org/2000/svg" xmlns:xlink="http://www.w3.org/1999/xlink" viewBox="0 0 1074.92 279.45"><defs><style>.cls-1,.cls-6{fill:none;}.cls-2{fill:#4f5e65;}.cls-3{clip-path:url(#clip-path);}.cls-4{fill:#2b383f;}.cls-5{fill:#31c3a2;}.cls-6{stroke:#4f5e65;stroke-linecap:round;stroke-linejoin:round;stroke-width:18.5px;}.cls-7{fill:#fff;}</style><clipPath id="clip-path"><path class="cls-1" d="M238,270.2H27.75c-14.16,0-22.68-16.7-15-29.33L89.64,115.2h.1v-97H176v97.72l76.92,124.9C260.7,253.44,252.18,270.2,238,270.2Z"/></clipPath></defs><title>beaker-full-night</title><g id="Layer_2" data-name="Layer 2"><g id="Layer_1-2" data-name="Layer 1-2"><path class="cls-2" d="M189.28,37.2H76.48a18.6,18.6,0,0,1-18.6-18.6h0A18.6,18.6,0,0,1,76.48,0h112.8a18.6,18.6,0,0,1,18.6,18.6h0A18.6,18.6,0,0,1,189.28,37.2Z"/><g class="cls-3"><rect class="cls-4" y="18.2" width="266" height="261"/><path class="cls-5" d="M251.94,240.36H206.45c-2.77,0-5-2.77-5-6.18s2.24-6.18,5-6.19H252"/><path class="cls-5" d="M233.94,207.36H185.75c-2.94,0-5.32-2.77-5.32-6.18s2.37-6.18,5.31-6.19h48.2"/><path class="cls-5" d="M222.67,174.36H166.61a6.19,6.19,0,0,1,0-12.37h56.07"/></g><path class="cls-6" d="M238,270.2H27.75c-14.16,0-22.68-16.7-15-29.33L89.64,115.2h.1v-97H176v97.72l76.92,124.9C260.7,253.44,252.18,270.2,238,270.2Z"/><path class="cls-7" d="M343.93,80.22a16.34,16.34,0,0,1,32.68,0v43.22c8-10.75,18.92-18.71,35.91-18.71,26.87,0,52.46,21.07,52.46,59.56v.43c0,38.48-25.16,59.55-52.46,59.55-17.42,0-28.17-8-35.91-17.2v.22a16.34,16.34,0,0,1-32.68-.22h0Zm88.37,84.5v-.43c0-19.14-12.9-31.82-28.17-31.82s-27.95,12.68-27.95,31.82v.43c0,19.13,12.69,31.82,27.95,31.82S432.3,184.07,432.3,164.72Z"/><path class="cls-7" d="M543.66,224.7c-34.61,0-60.19-24.29-60.19-59.55v-.43c0-32.9,23.43-60,57-60,38.48,0,55.47,31.61,55.47,55.47,0,9.46-6.67,15.7-15.27,15.7H515.93c3.23,14.83,13.54,22.57,28.16,22.57a37.65,37.65,0,0,0,23.22-7.74,12.23,12.23,0,0,1,8-2.58A12.5,12.5,0,0,1,588,200.42c0,.21,0,.42,0,.63a12.8,12.8,0,0,1-4.3,9.67C573.55,219.33,560.43,224.7,543.66,224.7Zm21.07-69.23C562.8,140.85,554.2,131,540.44,131c-13.55,0-22.36,9.68-24.94,24.51Z"/><path class="cls-7" d="M614,189v-.43c0-25.15,19.13-36.76,46.44-36.76a81.63,81.63,0,0,1,28.16,4.73V154.6c0-13.54-8.38-21.07-24.72-21.07a75.08,75.08,0,0,0-22.58,3.23,13.89,13.89,0,0,1-4.73.86A13.32,13.32,0,0,1,623,124.57v-.27a13.55,13.55,0,0,1,8.81-12.69c10.32-3.87,21.5-6,36.77-6,17.84,0,30.74,4.73,38.91,12.9,8.6,8.6,12.47,21.29,12.47,36.77v52.45a15.68,15.68,0,0,1-15.68,15.7h-.23c-9.46,0-15.69-6.66-15.69-13.54v-.22c-8,8.81-18.92,14.62-34.83,14.62C631.81,224.27,614,211.8,614,189Zm75-7.52v-5.81a50.71,50.71,0,0,0-20.85-4.3c-14,0-22.58,5.59-22.58,15.91v.43c0,8.82,7.31,14,17.85,14,15.26,0,25.58-8.4,25.58-20.22Z"/><path class="cls-7" d="M748.13,80.22a16.34,16.34,0,1,1,32.68,0v71.4l40.85-38.7c4.73-4.51,8.6-7.31,14.4-7.31,8.82,0,14.41,7.1,14.41,14.62,0,5.59-3,9.89-7.53,14.19l-25.8,22.15L847.89,198c2.79,3.87,4.08,6.88,4.08,10.54,0,8.81-7.09,14.83-15.26,14.83-6.45,0-10.32-2.15-14.19-7.53l-28.6-39.34-13.11,11.83V207a16.34,16.34,0,0,1-32.68,0V80.22Z"/><path class="cls-7" d="M927,224.7c-34.62,0-60.2-24.29-60.2-59.55v-.43c0-32.9,23.43-60,57-60,38.49,0,55.47,31.61,55.47,55.47,0,9.46-6.66,15.7-15.26,15.7H899.27c3.23,14.83,13.55,22.57,28.17,22.57a37.71,37.71,0,0,0,23.22-7.74,12.18,12.18,0,0,1,8-2.58,12.49,12.49,0,0,1,12.69,12.3q0,.3,0,.6a12.8,12.8,0,0,1-4.3,9.67C956.89,219.33,943.78,224.7,927,224.7Zm21.07-69.23c-1.94-14.62-10.54-24.51-24.3-24.51-13.54,0-22.36,9.68-24.94,24.51Z"/><path class="cls-7" d="M1004.19,121.93a16.34,16.34,0,1,1,32.68,0v5.18c4.73-11.18,12.47-21.5,22.14-21.5,10.11,0,15.91,6.67,15.91,15.91,0,8.6-5.58,13.76-12.25,15.27-16.55,3.87-25.8,16.55-25.8,39.77v30.53a16.34,16.34,0,0,1-32.68,0V121.93Z"/></g></g></svg>