<?xml version="1.0" encoding="utf-8"?>
<!-- Generator: Adobe Illustrator 22.0.1, SVG Export Plug-In . SVG Version: 6.00 Build 0)  -->
<svg version="1.1" id="Layer_1" xmlns="http://www.w3.org/2000/svg" xmlns:xlink="http://www.w3.org/1999/xlink" x="0px" y="0px"
	 viewBox="0 0 280 231" style="enable-background:new 0 0 280 231;" xml:space="preserve">
<style type="text/css">
	.st0{fill:#31C3A2;}
	.st1{fill:#2B383F;}
	.st2{fill:#4F5E65;}
	.st3{fill:#FFFFFF;}
</style>
<path class="st0" d="M55,41c0-8.3,6.7-15,15-15h140c8.3,0,15,6.7,15,15v132c0,8.3-6.7,15-15,15h-76.1c-3.8,0-7.4,1.4-10.2,4
	l-14.1,13.1c-6.3,5.9-16.6,1.4-16.6-7.2c0-5.5-4.4-9.9-9.9-9.9H70c-8.3,0-15-6.7-15-15V41z"/>
<path class="st1" d="M280,80v45c0,16.6-13.4,30-30,30h-15v17c0,13.8-11.2,25-25,25h-81.1c-0.3,0-0.5,0.1-0.7,0.3l-31,31
	C93.5,232,87,229.4,87,224v-26c0-0.6-0.4-1-1-1H70c-13.8,0-25-11.2-25-25v-17H30c-16.6,0-30-13.4-30-30V80c0-16.6,13.4-30,30-30v-6
	C30,19.7,49.7,0,74,0h132c24.3,0,44,19.7,44,44v6C266.6,50,280,63.4,280,80z M60,44c0-7.7,6.3-14,14-14h132c7.7,0,14,6.3,14,14v6H60
	V44z M140,126l-7.3,23.4c-1,3.3-4.1,5.6-7.6,5.6H60v17c0,5.5,4.5,10,10,10h27c2.8,0,5,2.2,5,5v15.3l18.8-18.8
	c0.9-0.9,2.2-1.5,3.5-1.5H210c5.5,0,10-4.5,10-10v-17h-65.1c-3.5,0-6.6-2.3-7.6-5.6L140,126z"/>
<path class="st0" d="M60,44c0-7.7,6.3-14,14-14h132c7.7,0,14,6.3,14,14v6H60V44z"/>
<path class="st2" d="M20,80c0-5.5,4.5-10,10-10V60c-11,0-20,9-20,20v45c0,2.8,2.2,5,5,5s5-2.2,5-5V80z M260,80c0-5.5-4.5-10-10-10
	V60c11,0,20,9,20,20v45c0,2.8-2.2,5-5,5s-5-2.2-5-5V80z"/>
<path class="st3" d="M235,65H45v60c0,8.3,6.7,15,15,15h60.5c0.9,0,1.6-0.6,1.9-1.4l9.9-31.7c2.3-7.5,12.9-7.5,15.3,0l9.9,31.7
	c0.3,0.8,1,1.4,1.9,1.4H220c8.3,0,15-6.7,15-15V65z"/>
<path class="st1" d="M70,95c0-11,9-20,20-20c11,0,20,9,20,20v15c0,11-9,20-20,20c-11,0-20-9-20-20V95z M78,93c0-5.5,4.5-10,10-10
	s10,4.5,10,10s-4.5,10-10,10S78,98.5,78,93z M170,95c0-11,9-20,20-20c11,0,20,9,20,20v15c0,11-9,20-20,20c-11,0-20-9-20-20V95z
	 M178,93c0-5.5,4.5-10,10-10s10,4.5,10,10s-4.5,10-10,10S178,98.5,178,93z"/>
<path class="st3" d="M78,93c0-5.5,4.5-10,10-10c5.5,0,10,4.5,10,10c0,5.5-4.5,10-10,10C82.5,103,78,98.5,78,93z"/>
<path class="st3" d="M178,93c0-5.5,4.5-10,10-10s10,4.5,10,10c0,5.5-4.5,10-10,10S178,98.5,178,93z"/>
</svg>
