<svg xmlns="http://www.w3.org/2000/svg" viewBox="0 0 677.6 76"><defs><style>.cls-1{fill:#2b383f;}.cls-2{fill:#31c3a2;}.cls-3{fill:#4f5e65;}.cls-4{fill:#fff;}</style></defs><title>logo-platform</title><g id="Layer_2" data-name="Layer 2"><g id="Layer_1-2" data-name="Layer 1"><g id="logo-platform"><g id="logo"><path class="cls-1" d="M128.85,53.58c6.73,0,11.89-3.13,11.89-10v-.12c0-5.68-5.05-7.77-9.4-9.22-3.36-1.16-6.32-2-6.32-3.71v-.12c0-1.22,1.1-2.15,3.25-2.15a16.63,16.63,0,0,1,6.73,2,3.19,3.19,0,0,0,1.62.4,3.47,3.47,0,0,0,3.54-3.48,3.57,3.57,0,0,0-2.09-3.3,21.85,21.85,0,0,0-9.63-2.38c-6.26,0-11.37,3.54-11.37,9.86v.11c0,6,4.93,8.07,9.28,9.34,3.43,1.05,6.44,1.68,6.44,3.6v.11c0,1.4-1.16,2.32-3.71,2.32A16.34,16.34,0,0,1,120.67,44a3.36,3.36,0,0,0-1.74-.46A3.41,3.41,0,0,0,115.45,47a3.5,3.5,0,0,0,1.68,3A21.64,21.64,0,0,0,128.85,53.58ZM157,53.52a12.94,12.94,0,0,0,5-.87,3.58,3.58,0,0,0,2.27-3.3,3.69,3.69,0,0,0-3.66-3.66c-.17,0-.75.06-1,.06-2,0-2.84-1-2.84-3V29.45h3.88a3.77,3.77,0,1,0,0-7.54h-3.88V18a4.41,4.41,0,1,0-8.82,0v3.88h-.29a3.77,3.77,0,0,0,0,7.54h.29V44.18C147.94,51.38,151.59,53.52,157,53.52Zm13.57-4.58a4.41,4.41,0,0,0,8.82,0V40.7c0-6.26,2.49-9.68,7-10.73a4,4,0,0,0,3.31-4.11,4,4,0,0,0-4.3-4.3c-2.61,0-4.69,2.79-6,5.8V26a4.41,4.41,0,0,0-8.82,0ZM201.09,35c.7-4,3.07-6.61,6.73-6.61s6,2.67,6.55,6.61Zm18.39,14.91a3.49,3.49,0,0,0,1.16-2.61,3.37,3.37,0,0,0-3.43-3.48,3.31,3.31,0,0,0-2.14.69,10.15,10.15,0,0,1-6.27,2.09,7.21,7.21,0,0,1-7.59-6.09h17.45a4,4,0,0,0,4.12-4.23c0-6.44-4.58-15-15-15-9,0-15.37,7.31-15.37,16.18v.12c0,9.51,6.9,16.07,16.24,16.07A16.13,16.13,0,0,0,219.48,49.93Zm18.86,3.65a12,12,0,0,0,9.4-3.94v0A4,4,0,0,0,252,53.35a4.23,4.23,0,0,0,4.29-4.24V35c0-4.17-1-7.6-3.36-9.92s-5.68-3.48-10.5-3.48a27,27,0,0,0-9.92,1.63,3.64,3.64,0,0,0-2.37,3.42,3.59,3.59,0,0,0,3.65,3.6A3.65,3.65,0,0,0,235,30a20.25,20.25,0,0,1,6.09-.87c4.4,0,6.67,2,6.67,5.69v.52A22.23,22.23,0,0,0,240.2,34c-7.37,0-12.53,3.14-12.53,9.92v.12C227.67,50.22,232.48,53.58,238.34,53.58ZM241,47.49c-2.84,0-4.81-1.39-4.81-3.77V43.6c0-2.78,2.32-4.29,6.09-4.29a13.77,13.77,0,0,1,5.62,1.16V42C247.91,45.23,245.13,47.49,241,47.49Zm22.84,1.45a4.41,4.41,0,0,0,8.82,0V35.66c0-4.18,2-6.32,5.33-6.32s5.16,2.14,5.16,6.32V48.94a4.41,4.41,0,0,0,8.82,0V35.66c0-4.18,2-6.32,5.34-6.32s5.16,2.14,5.16,6.32V48.94a4.41,4.41,0,1,0,8.81,0V32.76c0-7.48-3.94-11.43-10.49-11.43a12.79,12.79,0,0,0-10.21,4.93c-1.63-3.13-4.7-4.93-8.76-4.93-4.47,0-7.13,2.38-9.16,5V26a4.41,4.41,0,0,0-8.82,0Zm55.52,0a4.41,4.41,0,1,0,8.81,0V14.72a4.41,4.41,0,1,0-8.81,0Zm25.91,4.64a12,12,0,0,0,9.4-3.94v0a4,4,0,0,0,4.23,3.66,4.23,4.23,0,0,0,4.29-4.24V35c0-4.17-1-7.6-3.36-9.92s-5.69-3.48-10.5-3.48a27,27,0,0,0-9.92,1.63A3.65,3.65,0,0,0,337,26.61,3.63,3.63,0,0,0,342,30a20.35,20.35,0,0,1,6.09-.87c4.41,0,6.67,2,6.67,5.69v.52A22.12,22.12,0,0,0,347.14,34c-7.37,0-12.53,3.14-12.53,9.92v.12C334.61,50.22,339.42,53.58,345.28,53.58ZM348,47.49c-2.84,0-4.82-1.39-4.82-3.77V43.6c0-2.78,2.32-4.29,6.09-4.29a13.78,13.78,0,0,1,5.63,1.16V42C354.85,45.23,352.07,47.49,348,47.49Zm22.84,1.45a4.41,4.41,0,0,0,8.81.06v-.06a12,12,0,0,0,9.69,4.64c7.37,0,14.15-5.68,14.15-16.07V37.4c0-10.38-6.9-16.07-14.15-16.07a11.44,11.44,0,0,0-9.69,5.05V14.72a4.41,4.41,0,1,0-8.81,0ZM387,46.1c-4.12,0-7.54-3.42-7.54-8.59V37.4c0-5.16,3.42-8.59,7.54-8.59s7.6,3.43,7.6,8.59v.11C394.63,42.73,391.15,46.1,387,46.1Zm33.8,7.48c6.73,0,11.89-3.13,11.89-10v-.12c0-5.68-5.05-7.77-9.4-9.22-3.36-1.16-6.32-2-6.32-3.71v-.12c0-1.22,1.1-2.15,3.25-2.15a16.59,16.59,0,0,1,6.73,2,3.19,3.19,0,0,0,1.62.4,3.47,3.47,0,0,0,3.54-3.48,3.57,3.57,0,0,0-2.09-3.3,21.81,21.81,0,0,0-9.63-2.38c-6.26,0-11.36,3.54-11.36,9.86v.11c0,6,4.93,8.07,9.28,9.34,3.42,1.05,6.43,1.68,6.43,3.6v.11c0,1.4-1.16,2.32-3.71,2.32A16.34,16.34,0,0,1,412.65,44a3.36,3.36,0,0,0-1.74-.46A3.41,3.41,0,0,0,407.43,47a3.52,3.52,0,0,0,1.68,3A21.64,21.64,0,0,0,420.83,53.58Z"/><g id="kevin"><path class="cls-2" d="M18.07,13.55a5,5,0,0,1,4.93-5H69a5,5,0,0,1,4.93,5V57.16a4.94,4.94,0,0,1-4.93,5H44a4.92,4.92,0,0,0-3.35,1.33L36,67.76a3.24,3.24,0,0,1-5.45-2.38,3.25,3.25,0,0,0-3.25-3.27H23a4.94,4.94,0,0,1-4.93-5Z"/><path class="cls-1" d="M92,26.43V41.3a9.88,9.88,0,0,1-9.86,9.91H77.21v5.62A8.23,8.23,0,0,1,69,65.09H42.36a.32.32,0,0,0-.23.09L32,75.42A2,2,0,0,1,28.59,74V65.42a.33.33,0,0,0-.33-.33H23a8.23,8.23,0,0,1-8.21-8.26V51.21H9.86A9.88,9.88,0,0,1,0,41.3V26.43a9.88,9.88,0,0,1,9.86-9.91v-2A14.5,14.5,0,0,1,24.31,0H67.69A14.5,14.5,0,0,1,82.14,14.54v2A9.88,9.88,0,0,1,92,26.43ZM19.71,14.54a4.61,4.61,0,0,1,4.6-4.63H67.69a4.61,4.61,0,0,1,4.6,4.63v2H19.71ZM46,41.63l-2.38,7.72a2.63,2.63,0,0,1-2.51,1.86H19.71v5.62A3.3,3.3,0,0,0,23,60.13h8.87a1.64,1.64,0,0,1,1.64,1.65v5l6.19-6.21a1.64,1.64,0,0,1,1.16-.49H69a3.3,3.3,0,0,0,3.29-3.3V51.21H50.89a2.63,2.63,0,0,1-2.51-1.86Z"/><path class="cls-2" d="M19.71,14.54a4.61,4.61,0,0,1,4.6-4.63H67.69a4.61,4.61,0,0,1,4.6,4.63v2H19.71Z"/><path class="cls-3" d="M6.57,26.43a3.29,3.29,0,0,1,3.29-3.3V19.82a6.59,6.59,0,0,0-6.57,6.61V41.3a1.64,1.64,0,1,0,3.28,0Zm78.86,0a3.29,3.29,0,0,0-3.29-3.3V19.82a6.59,6.59,0,0,1,6.57,6.61V41.3a1.64,1.64,0,1,1-3.28,0Z"/><path class="cls-4" d="M77.21,21.48H14.79V41.3a4.94,4.94,0,0,0,4.92,5H39.6a.66.66,0,0,0,.63-.47l3.26-10.48a2.62,2.62,0,0,1,5,0l3.26,10.48a.66.66,0,0,0,.63.47H72.29a4.94,4.94,0,0,0,4.92-5Z"/><path class="cls-1" d="M23,31.39a6.57,6.57,0,1,1,13.14,0v5a6.57,6.57,0,1,1-13.14,0Zm2.63-.66A3.29,3.29,0,1,1,28.91,34,3.29,3.29,0,0,1,25.63,30.73Zm30.23.66a6.57,6.57,0,1,1,13.14,0v5a6.57,6.57,0,1,1-13.14,0Zm2.63-.66A3.29,3.29,0,1,1,61.77,34,3.29,3.29,0,0,1,58.49,30.73Z"/><path class="cls-4" d="M25.63,30.73A3.29,3.29,0,1,1,28.91,34,3.29,3.29,0,0,1,25.63,30.73Z"/><path class="cls-4" d="M58.49,30.73A3.29,3.29,0,1,1,61.77,34,3.29,3.29,0,0,1,58.49,30.73Z"/></g></g><path class="cls-1" d="M440,24.93a2.23,2.23,0,1,1,4.46,0V29c2.44-3.6,6-6.67,11.49-6.67,7.19,0,14.32,5.68,14.32,15.54V38c0,9.8-7.07,15.6-14.32,15.6-5.57,0-9.17-3-11.49-6.38v13a2.18,2.18,0,0,1-2.2,2.26A2.23,2.23,0,0,1,440,60.25ZM465.67,38v-.11c0-7.08-4.87-11.6-10.55-11.6a11.18,11.18,0,0,0-10.85,11.54V38c0,7,5.28,11.6,10.85,11.6C460.92,49.58,465.67,45.28,465.67,38ZM478.9,12.57a2.23,2.23,0,1,1,4.46,0V51a2.18,2.18,0,0,1-2.2,2.26A2.23,2.23,0,0,1,478.9,51Zm12.58,31.67v-.12c0-6.32,5.22-9.68,12.82-9.68a32,32,0,0,1,9.22,1.27v-1c0-5.39-3.31-8.18-8.93-8.18a18.78,18.78,0,0,0-7.77,1.68,2.22,2.22,0,0,1-.82.18,2,2,0,0,1-2-1.92,2,2,0,0,1,1.22-1.85,23.57,23.57,0,0,1,9.8-2c4.24,0,7.48,1.1,9.69,3.3,2,2,3.07,4.93,3.07,8.76V51a2.12,2.12,0,0,1-2.14,2.2,2.06,2.06,0,0,1-2.15-2.09V48.42a13.16,13.16,0,0,1-10.85,5.16C497.11,53.58,491.48,50.39,491.48,44.24Zm22.1-2.32V39a31.22,31.22,0,0,0-8.82-1.28c-5.62,0-8.76,2.44-8.76,6.21v.12c0,3.77,3.48,6,7.54,6C509.05,50,513.58,46.68,513.58,41.92Zm15,3.07V26.9h-2.43a2,2,0,0,1-2-2,2,2,0,0,1,2-2h2.43V15.88a2.22,2.22,0,0,1,2.21-2.26,2.3,2.3,0,0,1,2.26,2.26V23h7.77a2,2,0,0,1,2,2,2,2,0,0,1-2,2h-7.77V44.41c0,3.66,2,5,5,5a12.84,12.84,0,0,0,2.73-.4,1.93,1.93,0,0,1,1.91,1.91,1.87,1.87,0,0,1-1.27,1.74,11.34,11.34,0,0,1-4.41.81C532.25,53.46,528.6,51.08,528.6,45ZM552.15,26.9h-2.44a1.91,1.91,0,0,1-1.91-2A1.93,1.93,0,0,1,549.71,23h2.44V20.4c0-3.42.93-6,2.61-7.71a8.82,8.82,0,0,1,6.44-2.32,14.63,14.63,0,0,1,3.53.35,2,2,0,0,1,1.63,1.91,1.92,1.92,0,0,1-2.15,1.91,16.18,16.18,0,0,0-2.43-.29c-3.48,0-5.22,2.09-5.22,6.38v2.44h7.77a1.91,1.91,0,0,1,2,1.91,1.94,1.94,0,0,1-2,1.92h-7.72V51a2.21,2.21,0,0,1-2.2,2.26A2.26,2.26,0,0,1,552.15,51Zm17.17,11.19V38a15.63,15.63,0,0,1,31.26-.12V38a15.57,15.57,0,0,1-15.72,15.65A15.35,15.35,0,0,1,569.32,38.09Zm26.68,0V38c0-6.44-4.82-11.72-11.14-11.72-6.5,0-11,5.28-11,11.6V38c0,6.43,4.75,11.65,11.08,11.65C591.47,49.63,596,44.41,596,38.09Zm12.64-13.16a2.26,2.26,0,0,1,2.2-2.27,2.24,2.24,0,0,1,2.27,2.27v5.62c2.2-5,6.55-8,10.32-8a2.14,2.14,0,0,1,2.2,2.26,2.21,2.21,0,0,1-2,2.26c-5.8.7-10.55,5-10.55,13.69V51a2.24,2.24,0,1,1-4.47,0Zm23.49,0a2.26,2.26,0,0,1,2.2-2.27,2.24,2.24,0,0,1,2.27,2.27V28c2-3,4.64-5.68,9.68-5.68a10.19,10.19,0,0,1,9.63,6c2.15-3.31,5.34-6,10.56-6,6.9,0,11.13,4.64,11.13,12.06V51a2.23,2.23,0,1,1-4.46,0V35.42c0-5.8-2.91-9-7.78-9-4.52,0-8.23,3.36-8.23,9.28V51a2.24,2.24,0,1,1-4.47,0V35.31c0-5.63-3-8.93-7.71-8.93s-8.35,3.94-8.35,9.45V51a2.19,2.19,0,0,1-2.21,2.26A2.23,2.23,0,0,1,632.13,51Z"/></g></g></g></svg>