<?xml version="1.0" encoding="utf-8"?>
<!-- Generator: Adobe Illustrator 22.0.1, SVG Export Plug-In . SVG Version: 6.00 Build 0)  -->
<svg version="1.1" id="Layer_1" xmlns="http://www.w3.org/2000/svg" xmlns:xlink="http://www.w3.org/1999/xlink" x="0px" y="0px"
	 viewBox="0 0 436 77" style="enable-background:new 0 0 436 77;" xml:space="preserve">
<style type="text/css">
	.st0{fill:#2B383F;}
	.st1{fill:#31C3A2;}
	.st2{fill:#4F5E65;}
	.st3{fill:#FFFFFF;}
</style>
<path class="st0" d="M128.8,53.6c6.7,0,11.9-3.1,11.9-10v-0.1c0-5.7-5-7.8-9.4-9.2c-3.4-1.2-6.3-2-6.3-3.7v-0.1
	c0-1.2,1.1-2.1,3.2-2.1c1.9,0,4.2,0.8,6.7,2c0.6,0.3,1,0.4,1.6,0.4c2,0,3.5-1.5,3.5-3.5c0-1.5-0.8-2.7-2.1-3.3
	c-3-1.5-6.4-2.4-9.6-2.4c-6.3,0-11.4,3.5-11.4,9.9v0.1c0,6,4.9,8.1,9.3,9.3c3.4,1,6.4,1.7,6.4,3.6v0.1c0,1.4-1.2,2.3-3.7,2.3
	c-2.5,0-5.5-0.9-8.4-2.8c-0.5-0.3-1.1-0.5-1.7-0.5c-2,0-3.5,1.5-3.5,3.5c0,1.4,0.8,2.4,1.7,3C120.9,52.5,125,53.6,128.8,53.6z
	 M157,53.5c1.9,0,3.4-0.2,5-0.9c1.2-0.5,2.3-1.7,2.3-3.3c0-2-1.7-3.7-3.7-3.7c-0.2,0-0.8,0.1-1,0.1c-2,0-2.8-1-2.8-3V29.5h3.9
	c2.1,0,3.8-1.7,3.8-3.8s-1.7-3.8-3.8-3.8h-3.9V18c0-2.4-2-4.4-4.4-4.4c-2.4,0-4.4,2-4.4,4.4v3.9h-0.3c-2.1,0-3.8,1.7-3.8,3.8
	s1.7,3.8,3.8,3.8h0.3v14.7C147.9,51.4,151.6,53.5,157,53.5z M170.6,48.9c0,2.4,2,4.4,4.4,4.4s4.4-2,4.4-4.4v-8.2
	c0-6.3,2.5-9.7,7-10.7c1.8-0.4,3.3-1.8,3.3-4.1c0-2.5-1.6-4.3-4.3-4.3c-2.6,0-4.7,2.8-6,5.8V26c0-2.4-2-4.4-4.4-4.4s-4.4,2-4.4,4.4
	V48.9z M201.1,35c0.7-4,3.1-6.6,6.7-6.6c3.7,0,6,2.7,6.6,6.6H201.1z M219.5,49.9c0.6-0.6,1.2-1.4,1.2-2.6c0-2-1.4-3.5-3.4-3.5
	c-0.9,0-1.5,0.2-2.1,0.7c-1.8,1.3-3.8,2.1-6.3,2.1c-3.9,0-6.7-2.1-7.6-6.1h17.5c2.3,0,4.1-1.7,4.1-4.2c0-6.4-4.6-15-15-15
	c-9,0-15.4,7.3-15.4,16.2v0.1c0,9.5,6.9,16.1,16.2,16.1C213.2,53.7,216.8,52.2,219.5,49.9z M238.3,53.6c4.3,0,7.2-1.6,9.4-3.9v0.1
	c0,1.9,1.7,3.7,4.2,3.7c2.4,0,4.3-1.9,4.3-4.2V35c0-4.2-1-7.6-3.4-9.9c-2.2-2.2-5.7-3.5-10.5-3.5c-4.1,0-7.1,0.6-9.9,1.6
	c-1.4,0.5-2.4,1.9-2.4,3.4c0,2,1.6,3.6,3.7,3.6c0.4,0,0.8-0.1,1.3-0.2c1.7-0.5,3.7-0.9,6.1-0.9c4.4,0,6.7,2,6.7,5.7v0.5
	c-2.2-0.8-4.5-1.3-7.6-1.3c-7.4,0-12.5,3.1-12.5,9.9v0.1C227.7,50.2,232.5,53.6,238.3,53.6z M241,47.5c-2.8,0-4.8-1.4-4.8-3.8v-0.1
	c0-2.8,2.3-4.3,6.1-4.3c2.1,0,4.1,0.5,5.6,1.2V42C247.9,45.2,245.1,47.5,241,47.5z M263.9,48.9c0,2.4,2,4.4,4.4,4.4
	c2.4,0,4.4-2,4.4-4.4V35.7c0-4.2,2-6.3,5.3-6.3c3.3,0,5.2,2.1,5.2,6.3v13.3c0,2.4,2,4.4,4.4,4.4c2.4,0,4.4-2,4.4-4.4V35.7
	c0-4.2,2-6.3,5.3-6.3c3.3,0,5.2,2.1,5.2,6.3v13.3c0,2.4,2,4.4,4.4,4.4c2.4,0,4.4-2,4.4-4.4V32.8c0-7.5-3.9-11.4-10.5-11.4
	c-4.2,0-7.5,1.7-10.2,4.9c-1.6-3.1-4.7-4.9-8.8-4.9c-4.5,0-7.1,2.4-9.2,5V26c0-2.4-2-4.4-4.4-4.4c-2.4,0-4.4,2-4.4,4.4V48.9z
	 M319.4,48.9c0,2.4,2,4.4,4.4,4.4s4.4-2,4.4-4.4V14.7c0-2.4-2-4.4-4.4-4.4s-4.4,2-4.4,4.4V48.9z M345.3,53.6c4.3,0,7.2-1.6,9.4-3.9
	v0.1c0,1.9,1.7,3.7,4.2,3.7c2.4,0,4.3-1.9,4.3-4.2V35c0-4.2-1-7.6-3.4-9.9c-2.2-2.2-5.7-3.5-10.5-3.5c-4.1,0-7.1,0.6-9.9,1.6
	c-1.4,0.5-2.4,1.9-2.4,3.4c0,2,1.6,3.6,3.7,3.6c0.4,0,0.8-0.1,1.3-0.2c1.7-0.5,3.7-0.9,6.1-0.9c4.4,0,6.7,2,6.7,5.7v0.5
	c-2.2-0.8-4.5-1.3-7.6-1.3c-7.4,0-12.5,3.1-12.5,9.9v0.1C334.6,50.2,339.4,53.6,345.3,53.6z M347.9,47.5c-2.8,0-4.8-1.4-4.8-3.8
	v-0.1c0-2.8,2.3-4.3,6.1-4.3c2.1,0,4.1,0.5,5.6,1.2V42C354.9,45.2,352.1,47.5,347.9,47.5z M370.8,48.9c0,2.4,2,4.4,4.4,4.4
	c2.4,0,4.4-2,4.4-4.3v-0.1c2.1,2.5,5,4.6,9.7,4.6c7.4,0,14.2-5.7,14.2-16.1v-0.1c0-10.4-6.9-16.1-14.2-16.1c-4.6,0-7.5,2.1-9.7,5
	V14.7c0-2.4-2-4.4-4.4-4.4c-2.4,0-4.4,2-4.4,4.4V48.9z M387,46.1c-4.1,0-7.5-3.4-7.5-8.6v-0.1c0-5.2,3.4-8.6,7.5-8.6
	c4.1,0,7.6,3.4,7.6,8.6v0.1C394.6,42.7,391.1,46.1,387,46.1z M420.8,53.6c6.7,0,11.9-3.1,11.9-10v-0.1c0-5.7-5-7.8-9.4-9.2
	c-3.4-1.2-6.3-2-6.3-3.7v-0.1c0-1.2,1.1-2.1,3.2-2.1c1.9,0,4.2,0.8,6.7,2c0.6,0.3,1,0.4,1.6,0.4c2,0,3.5-1.5,3.5-3.5
	c0-1.5-0.8-2.7-2.1-3.3c-3-1.5-6.4-2.4-9.6-2.4c-6.3,0-11.4,3.5-11.4,9.9v0.1c0,6,4.9,8.1,9.3,9.3c3.4,1,6.4,1.7,6.4,3.6v0.1
	c0,1.4-1.2,2.3-3.7,2.3c-2.5,0-5.5-0.9-8.4-2.8c-0.5-0.3-1.1-0.5-1.7-0.5c-2,0-3.5,1.5-3.5,3.5c0,1.4,0.8,2.4,1.7,3
	C412.9,52.5,417,53.6,420.8,53.6z"/>
<g id="kevin">
	<path class="st1" d="M18.1,13.5c0-2.7,2.2-5,4.9-5h46c2.7,0,4.9,2.2,4.9,5v43.6c0,2.7-2.2,5-4.9,5H44c-1.2,0-2.4,0.5-3.4,1.3
		L36,67.8c-2.1,1.9-5.4,0.5-5.4-2.4c0-1.8-1.5-3.3-3.2-3.3H23c-2.7,0-4.9-2.2-4.9-5V13.5z"/>
	<path class="st0" d="M92,26.4v14.9c0,5.5-4.4,9.9-9.9,9.9h-4.9v5.6c0,4.6-3.7,8.3-8.2,8.3H42.4c-0.1,0-0.2,0-0.2,0.1L32,75.4
		c-1.2,1.2-3.4,0.4-3.4-1.4v-8.6c0-0.2-0.1-0.3-0.3-0.3H23c-4.5,0-8.2-3.7-8.2-8.3v-5.6H9.9c-5.4,0-9.9-4.4-9.9-9.9V26.4
		c0-5.5,4.4-9.9,9.9-9.9v-2C9.9,6.5,16.3,0,24.3,0h43.4c8,0,14.5,6.5,14.5,14.5v2C87.6,16.5,92,21,92,26.4z M19.7,14.5
		c0-2.6,2.1-4.6,4.6-4.6h43.4c2.5,0,4.6,2.1,4.6,4.6v2H19.7V14.5z M46,41.6l-2.4,7.7c-0.3,1.1-1.4,1.9-2.5,1.9H19.7v5.6
		c0,1.8,1.5,3.3,3.3,3.3h8.9c0.9,0,1.6,0.7,1.6,1.7v5.1l6.2-6.2c0.3-0.3,0.7-0.5,1.2-0.5H69c1.8,0,3.3-1.5,3.3-3.3v-5.6H50.9
		c-1.2,0-2.2-0.8-2.5-1.9L46,41.6z"/>
	<path class="st1" d="M19.7,14.5c0-2.6,2.1-4.6,4.6-4.6h43.4c2.5,0,4.6,2.1,4.6,4.6v2H19.7V14.5z"/>
	<path class="st2" d="M6.6,26.4c0-1.8,1.5-3.3,3.3-3.3v-3.3c-3.6,0-6.6,3-6.6,6.6v14.9C3.3,42.2,4,43,4.9,43s1.6-0.7,1.6-1.7V26.4z
		 M85.4,26.4c0-1.8-1.5-3.3-3.3-3.3v-3.3c3.6,0,6.6,3,6.6,6.6v14.9c0,0.9-0.7,1.7-1.6,1.7c-0.9,0-1.6-0.7-1.6-1.7V26.4z"/>
	<path class="st3" d="M77.2,21.5H14.8v19.8c0,2.7,2.2,5,4.9,5h19.9c0.3,0,0.5-0.2,0.6-0.5l3.3-10.5c0.8-2.5,4.2-2.5,5,0l3.3,10.5
		c0.1,0.3,0.3,0.5,0.6,0.5h19.9c2.7,0,4.9-2.2,4.9-5V21.5z"/>
	<path class="st0" d="M23,31.4c0-3.6,2.9-6.6,6.6-6.6c3.6,0,6.6,3,6.6,6.6v5c0,3.6-2.9,6.6-6.6,6.6c-3.6,0-6.6-3-6.6-6.6V31.4z
		 M25.6,30.7c0-1.8,1.5-3.3,3.3-3.3s3.3,1.5,3.3,3.3c0,1.8-1.5,3.3-3.3,3.3S25.6,32.6,25.6,30.7z M55.9,31.4c0-3.6,2.9-6.6,6.6-6.6
		s6.6,3,6.6,6.6v5c0,3.6-2.9,6.6-6.6,6.6s-6.6-3-6.6-6.6V31.4z M58.5,30.7c0-1.8,1.5-3.3,3.3-3.3s3.3,1.5,3.3,3.3
		c0,1.8-1.5,3.3-3.3,3.3S58.5,32.6,58.5,30.7z"/>
	<path class="st3" d="M25.6,30.7c0-1.8,1.5-3.3,3.3-3.3c1.8,0,3.3,1.5,3.3,3.3c0,1.8-1.5,3.3-3.3,3.3C27.1,34,25.6,32.6,25.6,30.7z"
		/>
	<path class="st3" d="M58.5,30.7c0-1.8,1.5-3.3,3.3-3.3s3.3,1.5,3.3,3.3c0,1.8-1.5,3.3-3.3,3.3S58.5,32.6,58.5,30.7z"/>
</g>
</svg>
